# This file uses centimeters as units for non-parametric coordinates.

v 0.404509 0.293893 -0.000000
v 0.154508 0.475528 -0.000000
v -0.154509 0.475528 -0.000000
v -0.404509 0.293893 -0.000000
v -0.500000 -0.000000 0.000000
v -0.404509 -0.293893 0.000000
v -0.154508 -0.475528 0.000000
v 0.154509 -0.475528 0.000000
v 0.404509 -0.293893 0.000000
v 0.500000 0.000000 0.000000
v 0.606763 0.440839 0.433013
v 0.231763 0.713293 0.433013
v -0.231763 0.713292 0.433013
v -0.606763 0.440839 0.433013
v -0.750000 -0.000000 0.433013
v -0.606763 -0.440839 0.433013
v -0.231763 -0.713292 0.433013
v 0.231763 -0.713292 0.433013
v 0.606763 -0.440839 0.433013
v 0.750000 0.000000 0.433013
v 1.011271 0.734732 0.433013
v 0.386271 1.188821 0.433013
v -0.386271 1.188821 0.433013
v -1.011271 0.734732 0.433013
v -1.250000 -0.000000 0.433013
v -1.011271 -0.734732 0.433013
v -0.386271 -1.188821 0.433013
v 0.386271 -1.188821 0.433013
v 1.011271 -0.734732 0.433013
v 1.250000 0.000000 0.433013
v 1.213526 0.881678 -0.000000
v 0.463525 1.426585 -0.000000
v -0.463526 1.426585 -0.000000
v -1.213526 0.881678 -0.000000
v -1.500000 -0.000000 -0.000000
v -1.213526 -0.881678 -0.000000
v -0.463525 -1.426585 -0.000000
v 0.463526 -1.426585 -0.000000
v 1.213526 -0.881678 -0.000000
v 1.500000 -0.000000 -0.000000
v 1.011271 0.734732 -0.433013
v 0.386271 1.188821 -0.433013
v -0.386271 1.188821 -0.433013
v -1.011271 0.734731 -0.433013
v -1.250000 -0.000000 -0.433013
v -1.011271 -0.734732 -0.433013
v -0.386271 -1.188821 -0.433013
v 0.386271 -1.188821 -0.433013
v 1.011271 -0.734731 -0.433013
v 1.250000 -0.000000 -0.433013
v 0.606763 0.440839 -0.433013
v 0.231763 0.713292 -0.433013
v -0.231763 0.713292 -0.433013
v -0.606763 0.440839 -0.433013
v -0.750000 -0.000000 -0.433013
v -0.606763 -0.440839 -0.433013
v -0.231763 -0.713292 -0.433013
v 0.231763 -0.713292 -0.433013
v 0.606763 -0.440839 -0.433013
v 0.750000 -0.000000 -0.433013
vt 0.000000 1.000000
vt 0.100000 1.000000
vt 0.200000 1.000000
vt 0.300000 1.000000
vt 0.400000 1.000000
vt 0.500000 1.000000
vt 0.600000 1.000000
vt 0.700000 1.000000
vt 0.800000 1.000000
vt 0.900000 1.000000
vt 1.000000 1.000000
vt 0.000000 0.833333
vt 0.100000 0.833333
vt 0.200000 0.833333
vt 0.300000 0.833333
vt 0.400000 0.833333
vt 0.500000 0.833333
vt 0.600000 0.833333
vt 0.700000 0.833333
vt 0.800000 0.833333
vt 0.900000 0.833333
vt 1.000000 0.833333
vt 0.000000 0.666667
vt 0.100000 0.666667
vt 0.200000 0.666667
vt 0.300000 0.666667
vt 0.400000 0.666667
vt 0.500000 0.666667
vt 0.600000 0.666667
vt 0.700000 0.666667
vt 0.800000 0.666667
vt 0.900000 0.666667
vt 1.000000 0.666667
vt 0.000000 0.500000
vt 0.100000 0.500000
vt 0.200000 0.500000
vt 0.300000 0.500000
vt 0.400000 0.500000
vt 0.500000 0.500000
vt 0.600000 0.500000
vt 0.700000 0.500000
vt 0.800000 0.500000
vt 0.900000 0.500000
vt 1.000000 0.500000
vt 0.000000 0.333333
vt 0.100000 0.333333
vt 0.200000 0.333333
vt 0.300000 0.333333
vt 0.400000 0.333333
vt 0.500000 0.333333
vt 0.600000 0.333333
vt 0.700000 0.333333
vt 0.800000 0.333333
vt 0.900000 0.333333
vt 1.000000 0.333333
vt 0.000000 0.166667
vt 0.100000 0.166667
vt 0.200000 0.166667
vt 0.300000 0.166667
vt 0.400000 0.166667
vt 0.500000 0.166667
vt 0.600000 0.166667
vt 0.700000 0.166667
vt 0.800000 0.166667
vt 0.900000 0.166667
vt 1.000000 0.166667
vt 0.000000 -0.000000
vt 0.100000 -0.000000
vt 0.200000 -0.000000
vt 0.300000 -0.000000
vt 0.400000 -0.000000
vt 0.500000 -0.000000
vt 0.600000 -0.000000
vt 0.700000 -0.000000
vt 0.800000 -0.000000
vt 0.900000 -0.000000
vt 1.000000 -0.000000
vn -0.309017 -0.951057 0.000000
vn -0.809017 -0.587785 0.000000
vn -0.104982 -0.347393 0.931824
vn -0.289124 -0.219340 0.931825
vn 0.309017 -0.951056 0.000000
vn 0.119261 -0.342754 0.931824
vn 0.809017 -0.587785 0.000000
vn 0.297950 -0.207194 0.931825
vn 1.000000 0.000000 0.000000
vn 0.362832 0.007507 0.931825
vn 0.809017 0.587785 0.000000
vn 0.289125 0.219340 0.931825
vn 0.309017 0.951057 0.000000
vn 0.104982 0.347393 0.931825
vn -0.309017 0.951057 0.000000
vn -0.119261 0.342754 0.931824
vn -0.809017 0.587785 0.000000
vn -0.297950 0.207194 0.931825
vn -1.000000 0.000000 0.000000
vn -0.362832 -0.007507 0.931824
vn 0.177155 0.587117 0.789880
vn 0.488421 0.370858 0.789879
vn -0.201777 0.579117 0.789880
vn -0.503637 0.349914 0.789880
vn -0.613125 -0.012944 0.789880
vn -0.488420 -0.370858 0.789880
vn -0.177155 -0.587117 0.789880
vn 0.201777 -0.579117 0.789880
vn 0.503637 -0.349914 0.789879
vn 0.613126 0.012944 0.789880
vn 0.309017 0.951057 -0.000000
vn 0.809017 0.587785 -0.000000
vn -0.309017 0.951057 -0.000000
vn -0.809017 0.587785 -0.000000
vn -1.000000 -0.000000 0.000000
vn -0.809017 -0.587785 -0.000000
vn -0.309017 -0.951057 -0.000000
vn 0.309017 -0.951057 -0.000000
vn 0.809017 -0.587785 -0.000000
vn 1.000000 -0.000000 -0.000000
vn 0.201777 0.579117 -0.789880
vn 0.503637 0.349914 -0.789880
vn -0.177155 0.587117 -0.789880
vn -0.488420 0.370858 -0.789880
vn -0.613125 0.012944 -0.789880
vn -0.503637 -0.349914 -0.789880
vn -0.201777 -0.579117 -0.789880
vn 0.177155 -0.587117 -0.789880
vn 0.488420 -0.370858 -0.789880
vn 0.613125 -0.012944 -0.789880
vn -0.119261 -0.342754 -0.931824
vn -0.297950 -0.207194 -0.931824
vn 0.104982 -0.347393 -0.931824
vn 0.289125 -0.219341 -0.931824
vn 0.362832 -0.007507 -0.931824
vn 0.297950 0.207194 -0.931825
vn 0.119261 0.342754 -0.931825
vn -0.104982 0.347393 -0.931824
vn -0.289125 0.219341 -0.931824
vn -0.362832 0.007507 -0.931824
f 2/2/1 1/1/2 12/13/3
f 12/13/3 1/1/2 11/12/4
f 3/3/5 2/2/1 13/14/6
f 13/14/6 2/2/1 12/13/3
f 4/4/7 3/3/5 14/15/8
f 14/15/8 3/3/5 13/14/6
f 5/5/9 4/4/7 15/16/10
f 15/16/10 4/4/7 14/15/8
f 6/6/11 5/5/9 16/17/12
f 16/17/12 5/5/9 15/16/10
f 7/7/13 6/6/11 17/18/14
f 17/18/14 6/6/11 16/17/12
f 8/8/15 7/7/13 18/19/16
f 18/19/16 7/7/13 17/18/14
f 9/9/17 8/8/15 19/20/18
f 19/20/18 8/8/15 18/19/16
f 10/10/19 9/9/17 20/21/20
f 20/21/20 9/9/17 19/20/18
f 1/11/2 10/10/19 11/22/4
f 11/22/4 10/10/19 20/21/20
f 12/13/3 11/12/4 22/24/21
f 22/24/21 11/12/4 21/23/22
f 13/14/6 12/13/3 23/25/23
f 23/25/23 12/13/3 22/24/21
f 14/15/8 13/14/6 24/26/24
f 24/26/24 13/14/6 23/25/23
f 15/16/10 14/15/8 25/27/25
f 25/27/25 14/15/8 24/26/24
f 16/17/12 15/16/10 26/28/26
f 26/28/26 15/16/10 25/27/25
f 17/18/14 16/17/12 27/29/27
f 27/29/27 16/17/12 26/28/26
f 18/19/16 17/18/14 28/30/28
f 28/30/28 17/18/14 27/29/27
f 19/20/18 18/19/16 29/31/29
f 29/31/29 18/19/16 28/30/28
f 20/21/20 19/20/18 30/32/30
f 30/32/30 19/20/18 29/31/29
f 11/22/4 20/21/20 21/33/22
f 21/33/22 20/21/20 30/32/30
f 22/24/21 21/23/22 32/35/31
f 32/35/31 21/23/22 31/34/32
f 23/25/23 22/24/21 33/36/33
f 33/36/33 22/24/21 32/35/31
f 24/26/24 23/25/23 34/37/34
f 34/37/34 23/25/23 33/36/33
f 25/27/25 24/26/24 35/38/35
f 35/38/35 24/26/24 34/37/34
f 26/28/26 25/27/25 36/39/36
f 36/39/36 25/27/25 35/38/35
f 27/29/27 26/28/26 37/40/37
f 37/40/37 26/28/26 36/39/36
f 28/30/28 27/29/27 38/41/38
f 38/41/38 27/29/27 37/40/37
f 29/31/29 28/30/28 39/42/39
f 39/42/39 28/30/28 38/41/38
f 30/32/30 29/31/29 40/43/40
f 40/43/40 29/31/29 39/42/39
f 21/33/22 30/32/30 31/44/32
f 31/44/32 30/32/30 40/43/40
f 32/35/31 31/34/32 42/46/41
f 42/46/41 31/34/32 41/45/42
f 33/36/33 32/35/31 43/47/43
f 43/47/43 32/35/31 42/46/41
f 34/37/34 33/36/33 44/48/44
f 44/48/44 33/36/33 43/47/43
f 35/38/35 34/37/34 45/49/45
f 45/49/45 34/37/34 44/48/44
f 36/39/36 35/38/35 46/50/46
f 46/50/46 35/38/35 45/49/45
f 37/40/37 36/39/36 47/51/47
f 47/51/47 36/39/36 46/50/46
f 38/41/38 37/40/37 48/52/48
f 48/52/48 37/40/37 47/51/47
f 39/42/39 38/41/38 49/53/49
f 49/53/49 38/41/38 48/52/48
f 40/43/40 39/42/39 50/54/50
f 50/54/50 39/42/39 49/53/49
f 31/44/32 40/43/40 41/55/42
f 41/55/42 40/43/40 50/54/50
f 42/46/41 41/45/42 52/57/51
f 52/57/51 41/45/42 51/56/52
f 43/47/43 42/46/41 53/58/53
f 53/58/53 42/46/41 52/57/51
f 44/48/44 43/47/43 54/59/54
f 54/59/54 43/47/43 53/58/53
f 45/49/45 44/48/44 55/60/55
f 55/60/55 44/48/44 54/59/54
f 46/50/46 45/49/45 56/61/56
f 56/61/56 45/49/45 55/60/55
f 47/51/47 46/50/46 57/62/57
f 57/62/57 46/50/46 56/61/56
f 48/52/48 47/51/47 58/63/58
f 58/63/58 47/51/47 57/62/57
f 49/53/49 48/52/48 59/64/59
f 59/64/59 48/52/48 58/63/58
f 50/54/50 49/53/49 60/65/60
f 60/65/60 49/53/49 59/64/59
f 41/55/42 50/54/50 51/66/52
f 51/66/52 50/54/50 60/65/60
f 52/57/51 51/56/52 2/68/1
f 2/68/1 51/56/52 1/67/2
f 53/58/53 52/57/51 3/69/5
f 3/69/5 52/57/51 2/68/1
f 54/59/54 53/58/53 4/70/7
f 4/70/7 53/58/53 3/69/5
f 55/60/55 54/59/54 5/71/9
f 5/71/9 54/59/54 4/70/7
f 56/61/56 55/60/55 6/72/11
f 6/72/11 55/60/55 5/71/9
f 57/62/57 56/61/56 7/73/13
f 7/73/13 56/61/56 6/72/11
f 58/63/58 57/62/57 8/74/15
f 8/74/15 57/62/57 7/73/13
f 59/64/59 58/63/58 9/75/17
f 9/75/17 58/63/58 8/74/15
f 60/65/60 59/64/59 10/76/19
f 10/76/19 59/64/59 9/75/17
f 51/66/52 60/65/60 1/77/2
f 1/77/2 60/65/60 10/76/19
